<?xml version="1.0" encoding="UTF-8"?>
<svg width="353px" height="64px" viewBox="0 0 353 64" version="1.1" xmlns="http://www.w3.org/2000/svg" xmlns:xlink="http://www.w3.org/1999/xlink">
    <title>编组 3</title>
    <g id="页面-1" stroke="none" stroke-width="1" fill="none" fill-rule="evenodd">
        <g id="jianmuLOGO" transform="translate(-669.000000, -322.000000)">
            <g id="编组-3" transform="translate(669.000000, 322.000000)">
                <path d="M352.860545,41.0285494 C352.860545,43.4097222 351.980401,45.2744342 350.219599,46.621142 C348.458796,47.9673354 345.863632,48.6417181 342.435134,48.6417181 C341.137809,48.6417181 339.933076,48.5475823 338.820936,48.3598251 C337.708796,48.1720679 336.759208,47.8809156 335.971656,47.4904835 C335.183591,47.0990226 334.565792,46.6057099 334.117747,46.0105453 C333.669702,45.4148663 333.446451,44.7106481 333.446451,43.8953189 C333.446451,43.1432613 333.600257,42.5090021 333.909414,41.9920267 C334.218056,41.4755658 334.588426,41.0450103 335.021553,40.6998457 C335.91713,41.2013889 336.944907,41.6478909 338.102829,42.0393519 C339.261265,42.4313272 340.596656,42.6268004 342.11106,42.6268004 C343.06785,42.6268004 343.802418,42.4858539 344.311677,42.2034465 C344.821451,41.9215535 345.07608,41.5460391 345.07608,41.0763889 C345.07608,40.6376029 344.890895,40.2929527 344.52001,40.0419239 C344.14964,39.7919239 343.531327,39.5882202 342.66713,39.4313272 L341.276698,39.1494342 C338.589455,38.6175412 336.58894,37.7795782 335.276183,36.6355453 C333.963426,35.4920267 333.307047,33.8557099 333.307047,31.724537 C333.307047,30.5661008 333.553961,29.5162037 334.048817,28.5763889 C334.542644,27.6365741 335.237088,26.8536523 336.133179,26.2271091 C337.02927,25.6005658 338.102829,25.1149691 339.353858,24.7703189 C340.604887,24.4261831 341.987088,24.2533436 343.500977,24.2533436 C344.643467,24.2533436 345.717027,24.3402778 346.721142,24.5120885 C347.724743,24.6844136 348.597685,24.942644 349.33894,25.2872942 C350.08071,25.6319444 350.66713,26.0789609 351.099743,26.626286 C351.532356,27.1746399 351.74892,27.8243313 351.74892,28.5763889 C351.74892,29.2975823 351.616718,29.9153807 351.354887,30.4328704 C351.092027,30.9493313 350.759722,31.3804012 350.359002,31.724537 C350.11106,31.5681584 349.740689,31.4035494 349.246862,31.2317387 C348.752006,31.0594136 348.211368,30.9025206 347.624434,30.7615741 C347.038014,30.621142 346.44285,30.5028292 345.840998,30.4092078 C345.238632,30.315072 344.689763,30.2682613 344.195936,30.2682613 C343.176903,30.2682613 342.389352,30.3855453 341.833282,30.621142 C341.276698,30.8557099 340.998405,31.2235082 340.998405,31.724537 C340.998405,32.070216 341.152726,32.3521091 341.462397,32.5707305 C341.770525,32.7898663 342.357973,32.9940844 343.2232,33.1818416 L344.659414,33.5105453 C347.624434,34.2003601 349.732973,35.1473765 350.984516,36.3536523 C352.235031,37.559928 352.860545,39.1180556 352.860545,41.0285494" id="Fill-89" fill="#096DD9" opacity="0.299600291"></path>
                <path d="M11.1466049,5.78240741 C11.1466049,2.5776749 13.7937243,-7.531753e-13 16.9284979,-7.531753e-13 C20.1332305,-7.531753e-13 22.6414609,2.5776749 22.6414609,5.78240741 C22.6414609,8.91718107 20.1332305,11.4943416 16.9284979,11.4943416 C13.7937243,11.4943416 11.1466049,8.91718107 11.1466049,5.78240741 M22.6414609,19.9943416 L22.6414609,46.1183128 C22.6414609,55.593107 15.1177984,63.3261317 5.64300412,63.3950617 C2.50823045,63.3261317 8.52651283e-14,60.8179012 8.52651283e-14,57.6826132 C8.52651283e-14,54.4778807 2.5776749,51.9007202 5.781893,51.9007202 L5.50360082,51.9007202 C8.63837449,51.9007202 11.1466049,49.3924897 11.1466049,46.1183128 L11.1466049,19.9943416 C11.1466049,16.7885802 13.7937243,14.2119342 16.9284979,14.2119342 C20.1332305,14.2119342 22.6414609,16.7885802 22.6414609,19.9943416" id="Fill-97" fill="#012C53"></path>
                <path d="M29.6083333,6.13101852 C29.6083333,2.92680041 32.1165638,0.348611111 35.3207819,0.348611111 C38.5255144,0.348611111 41.0337449,2.92680041 41.0337449,6.13101852 C41.0337449,9.26579218 38.5255144,11.8434671 35.3207819,11.8434671 C32.1165638,11.8434671 29.6083333,9.26579218 29.6083333,6.13101852" id="Fill-99" fill="#012C53"></path>
                <path d="M41.0336934,20.0631173 L41.0336934,43.4015947 C41.0336934,46.5363683 38.525463,49.1140432 35.3212449,49.1140432 C32.1165123,49.1140432 29.6082819,46.5363683 29.6082819,43.4015947 L29.6082819,20.0631173 C29.6082819,16.9283436 32.1165123,14.3511831 35.3212449,14.3511831 C38.525463,14.3511831 41.0336934,16.9283436 41.0336934,20.0631173" id="Fill-101" fill="#012C53"></path>
                <path d="M65.4864712,37.46893 C62.546142,37.46893 60.0811214,35.2966049 59.6932613,32.517284 C59.6634259,32.2703704 59.6341049,32.0219136 59.6341049,31.7559671 C59.6341049,31.4895062 59.6634259,31.2415638 59.6932613,30.9941358 C60.0811214,28.2148148 62.546142,26.0424897 65.4864712,26.0424897 C68.6212449,26.0424897 71.1989198,28.620679 71.1989198,31.7554527 L71.2683642,31.7554527 L71.2683642,31.7564815 L71.1989198,31.7564815 C71.1989198,34.8907407 68.6212449,37.46893 65.4864712,37.46893 L65.4864712,37.46893 Z M82.9010802,31.7559671 L82.9021091,31.7554527 L82.899537,31.7554527 C82.8938786,31.7554527 82.833179,31.7533951 82.833179,31.6865226 L82.833179,20.1217078 L82.833179,20.1211934 C82.833179,16.9164609 80.1855453,14.3393004 77.0502572,14.3393004 C75.7539609,14.3393004 74.6279321,14.7199588 73.6989198,15.4092593 C73.4206276,15.6073045 73.1587963,15.8269547 72.9201132,16.0702675 C70.1315329,14.4092593 65.4864712,14.3393004 65.4864712,14.3393004 C62.3342078,14.3393004 59.3841049,15.1700617 56.8347222,16.6170782 C56.6989198,16.6674897 56.5631173,16.7173868 56.4298868,16.777572 L55.245216,17.5440329 C51.3074588,20.3567901 48.609928,24.8547325 48.0965535,29.9262346 C48.0914095,29.9776749 48.0872942,30.0291152 48.0821502,30.08107 C48.0600309,30.3197531 48.0399691,30.5579218 48.0276235,30.7986626 C48.0173354,30.9859053 48.014249,31.1757202 48.0101337,31.3645062 C48.0080761,31.4720165 48.0003601,31.5784979 48.0003601,31.6865226 L48.0003601,31.7554527 L48.0003601,31.7564815 L48.0003601,31.8248971 C48.0003601,31.9329218 48.0080761,32.0394033 48.0101337,32.1469136 C48.014249,32.3356996 48.0173354,32.5255144 48.0276235,32.7127572 C48.0399691,32.9534979 48.0600309,33.1921811 48.0821502,33.4303498 C48.0872942,33.4823045 48.0914095,33.5342593 48.0965535,33.5851852 C48.609928,38.6572016 51.3074588,43.1546296 55.245216,45.9673868 L56.4298868,46.7338477 C56.5631173,46.7940329 56.6989198,46.84393 56.8347222,46.8938272 C59.3841049,48.341358 62.3342078,49.1721193 65.4864712,49.1721193 C65.4864712,49.1721193 70.1315329,49.1021605 72.9201132,47.4411523 C73.1587963,47.6839506 73.4206276,47.9041152 73.6989198,48.1021605 C74.6279321,48.7914609 75.7539609,49.1721193 77.0502572,49.1721193 C80.1855453,49.1721193 82.833179,46.5944444 82.833179,43.3902263 L82.833179,43.3897119 L82.833179,31.8248971 C82.833179,31.7580247 82.8938786,31.7564815 82.899537,31.7564815 L82.9021091,31.7564815 L82.9010802,31.7559671 Z" id="Fill-103" fill="#012C53"></path>
                <path d="M124.703601,31.6974794 L124.703601,43.3312243 C124.703601,46.5364712 122.125412,49.1136317 118.921193,49.1136317 C115.716461,49.1136317 113.1393,46.5364712 113.1393,43.3312243 L113.1393,31.6974794 C113.1393,28.4932613 110.491152,25.9161008 107.286934,25.9161008 C104.082202,25.9161008 101.504527,28.4932613 101.504527,31.6974794 L101.504527,43.3312243 C101.504527,46.5364712 98.9273663,49.1136317 95.7226337,49.1136317 C92.5179012,49.1136317 89.8707819,46.5364712 89.8707819,43.3312243 L89.8707819,31.6974794 C89.8707819,22.0837963 97.673251,14.2818416 107.286934,14.2818416 C116.901132,14.2818416 124.703601,22.0837963 124.703601,31.6974794" id="Fill-105" fill="#012C53"></path>
                <path d="M189.841461,31.767284 L189.841461,43.4015432 C189.841461,46.5363169 187.194342,49.1139918 183.989609,49.1139918 C180.784877,49.1139918 178.207202,46.5363169 178.207202,43.4015432 L178.207202,31.767284 C178.207202,28.5630658 175.559568,25.9159465 172.35535,25.9159465 C169.150617,25.9159465 166.504012,28.5630658 166.504012,31.767284 L166.504012,43.4015432 C166.504012,46.5363169 163.925823,49.1139918 160.721605,49.1139918 C157.516358,49.1139918 154.869753,46.5363169 154.869753,43.4015432 L154.869753,31.767284 C154.869753,28.5630658 152.361523,25.9159465 149.15679,25.9159465 C145.952572,25.9159465 143.304938,28.5630658 143.304938,31.767284 L143.304938,43.4015432 C143.304938,46.5363169 140.727263,49.1139918 137.523045,49.1139918 C134.318313,49.1139918 131.670679,46.5363169 131.670679,43.4015432 L131.670679,31.767284 C131.670679,22.083642 139.543107,14.2816872 149.15679,14.2816872 C153.615638,14.2816872 157.656276,15.9534979 160.721605,18.740535 C163.786934,15.9534979 167.897016,14.2816872 172.35535,14.2816872 C181.969033,14.2816872 189.841461,22.1536008 189.841461,31.767284" id="Fill-107" fill="#096DD9"></path>
                <path d="M196.811008,31.6974794 L196.811008,20.0632202 C196.811008,16.8584877 199.388683,14.2818416 202.592901,14.2818416 C205.797634,14.2818416 208.374794,16.8584877 208.374794,20.0632202 L208.374794,31.6974794 C208.374794,34.9016975 211.022428,37.4798868 214.226646,37.4798868 C217.431379,37.4798868 220.009568,34.9016975 220.009568,31.6974794 L220.009568,20.0632202 C220.009568,16.8584877 222.586728,14.2818416 225.791461,14.2818416 C228.996193,14.2818416 231.643827,16.8584877 231.643827,20.0632202 L231.643827,31.6974794 C231.643827,41.311677 223.841358,49.1136317 214.226646,49.1136317 C204.613477,49.1136317 196.811008,41.311677 196.811008,31.6974794" id="Fill-109" fill="#096DD9"></path>
                <path d="M255.958848,40.5613683 C256.645062,40.5125 257.527778,40.4636317 258.508745,39.629784 C259.113169,39.1529321 259.569444,38.5088992 259.817901,37.7681584 C260.027263,37.2563272 260.13786,36.6956276 260.117284,36.1112654 L260.166667,36.1097222 L260.166667,36.1092078 L260.117284,36.110751 C260.109053,35.8741255 260.076132,35.6431584 260.028807,35.4188786 C259.62963,33.5361626 257.91358,32.1344136 255.929012,32.2033436 C255.316358,32.2244342 254.739198,32.3813272 254.221708,32.6375 C253.299383,33.0942901 252.573045,33.8761831 252.200617,34.8216564 C251.977881,35.2846193 251.839506,35.8242284 251.839506,36.4919239 C251.839506,38.7475823 253.702675,40.5613683 255.958848,40.5613683 M243.697531,35.4924383 C243.699588,35.4554012 243.701132,35.4188786 243.703704,35.382356 C243.943416,31.7763889 245.743313,28.5233025 248.464506,26.4332819 L249.284465,25.8612654 C249.378086,25.8154835 249.473251,25.7769033 249.567901,25.7378086 C251.338477,24.6498457 253.408436,23.9888374 255.641975,23.911677 C255.641975,23.911677 258.066358,23.8658951 260.028807,24.5531379 L260.028807,18.2506687 C260.028807,15.9950103 261.842593,14.1812243 264.098251,14.1812243 C266.353909,14.1812243 268.217078,15.9950103 268.217078,18.2506687 L268.217078,31.6966564 L268.217078,36.4919239 C268.16821,37.5706276 268.069959,38.5999486 267.824588,39.5809156 C266.962963,42.8761831 264.745885,45.6488169 261.807099,47.2552984 C261.779321,47.230607 261.749486,47.2079733 261.722222,47.1822531 C259.787551,48.4276235 256.497942,48.5906893 256.497942,48.5906893 C254.264403,48.6688786 252.153807,48.1524177 250.311728,47.1899691 C250.214506,47.1575617 250.117284,47.1256687 250.021091,47.0865741 L249.163066,46.5726852 C246.303498,44.6760802 244.282407,41.5557099 243.793724,37.9749486 C243.78858,37.9384259 243.784465,37.9019033 243.779321,37.8658951 C243.771605,37.8000514 243.765432,37.733179 243.757202,37.666821 C243.74537,37.5644547 243.731996,37.4620885 243.723251,37.358179 C243.71142,37.2259774 243.704733,37.0917181 243.697016,36.9579733 C243.692901,36.8818416 243.685185,36.8067387 243.682099,36.730607 L243.680556,36.6812243 L243.680556,36.6807099 L243.678498,36.6313272 C243.675926,36.5551955 243.679012,36.4795782 243.677984,36.4034465 C243.675926,36.2691872 243.673354,36.1354424 243.67644,36.0027263 C243.679012,35.83143 243.687757,35.6621914 243.697531,35.4924383" id="Fill-111" fill="#096DD9" opacity="0.299600291"></path>
                <path d="M289.74321,36.3888889 C289.74321,34.0365226 287.782819,32.1743827 285.430453,32.1743827 C283.078086,32.1743827 281.215432,34.0365226 281.215432,36.3888889 C281.215432,38.7412551 283.078086,40.6039095 285.430453,40.6039095 C287.782819,40.6039095 289.74321,38.7412551 289.74321,36.3888889 M285.430453,48.6414609 C278.715947,48.6414609 273.177881,43.1522634 273.177881,36.3888889 C273.177881,29.6260288 278.715947,24.1368313 285.430453,24.1368313 C292.193827,24.1368313 297.683025,29.6260288 297.731893,36.3888889 C297.683025,43.1522634 292.193827,48.6414609 285.430453,48.6414609" id="Fill-113" fill="#096DD9" opacity="0.299600291"></path>
                <path d="M314.883642,24.136677 L323.068313,24.136677 C325.322942,24.136677 327.136214,25.9499486 327.136214,28.2040638 C327.136214,30.4586934 325.322942,32.3213477 323.068313,32.3213477 L314.883642,32.3213477 C312.629012,32.3213477 310.815741,34.1346193 310.815741,36.3887346 C310.815741,38.6433642 312.629012,40.4571502 314.883642,40.4571502 L323.068313,40.4571502 C325.322942,40.4571502 327.136214,42.3192901 327.136214,44.5734053 C327.136214,46.828035 325.322942,48.641821 323.068313,48.641821 L314.883642,48.641821 C308.120267,48.641821 302.63107,43.1526235 302.63107,36.3887346 C302.63107,29.6258745 308.120267,24.136677 314.883642,24.136677" id="Fill-115" fill="#096DD9" opacity="0.299600291"></path>
            </g>
        </g>
    </g>
</svg>